<?xml version="1.0" encoding="UTF-8" standalone="no"?>
<svg
   xmlns:dc="http://purl.org/dc/elements/1.1/"
   xmlns:cc="http://creativecommons.org/ns#"
   xmlns:rdf="http://www.w3.org/1999/02/22-rdf-syntax-ns#"
   xmlns:svg="http://www.w3.org/2000/svg"
   xmlns="http://www.w3.org/2000/svg"
   viewBox="0 0 1145.1973 816.37732"
   height="816.37732"
   width="1145.1973"
   xml:space="preserve"
   id="svg2"
   version="1.1"><metadata
     id="metadata8"><rdf:RDF><cc:Work
         rdf:about=""><dc:format>image/svg+xml</dc:format><dc:type
           rdf:resource="http://purl.org/dc/dcmitype/StillImage" /></cc:Work></rdf:RDF></metadata><defs
     id="defs6"><clipPath
       id="clipPath22"
       clipPathUnits="userSpaceOnUse"><path
         id="path20"
         d="M 0,612.283 H 858.898 V 0 H 0 Z" /></clipPath></defs><g
     transform="matrix(1.3333333,0,0,-1.3333333,0,816.37733)"
     id="g10"><g
       transform="translate(316.629,262.046)"
       id="g12"><path
         id="path14"
         style="fill:#332d2b;fill-opacity:1;fill-rule:nonzero;stroke:none"
         d="M 0,0 V 43.754 H 26.808 V 34.16 H 11.626 V 26.569 H 25.941 V 17.185 H 11.626 V 9.803 H 26.808 V 0 Z" /></g><g
       id="g16"><g
         clip-path="url(#clipPath22)"
         id="g18"><g
           transform="translate(376.6522,277.1685)"
           id="g24"><path
             id="path26"
             style="fill:#332d2b;fill-opacity:1;fill-rule:nonzero;stroke:none"
             d="m 0,0 c 0,2.35 -0.628,4.214 -1.883,5.589 -1.255,1.375 -2.969,2.062 -5.14,2.062 -2.172,0 -3.881,-0.683 -5.125,-2.048 -1.246,-1.364 -1.869,-3.232 -1.869,-5.603 0,-2.351 0.628,-4.204 1.883,-5.559 1.255,-1.355 2.959,-2.032 5.111,-2.032 2.171,0 3.885,0.677 5.14,2.032 C -0.628,-4.204 0,-2.351 0,0 m 9.354,15.063 v -30.185 h -9.772 v 4.901 c -1.395,-2.092 -2.964,-3.627 -4.708,-4.603 -1.743,-0.975 -3.791,-1.464 -6.141,-1.464 -4.025,0 -7.243,1.469 -9.653,4.409 -2.412,2.938 -3.617,6.877 -3.617,11.819 0,4.921 1.26,8.831 3.781,11.731 2.521,2.898 5.912,4.348 10.176,4.348 2.272,0 4.23,-0.483 5.872,-1.45 1.645,-0.966 3.054,-2.455 4.23,-4.467 v 4.961 z" /></g><g
           transform="translate(394.2976,264.5565)"
           id="g28"><path
             id="path30"
             style="fill:#332d2b;fill-opacity:1;fill-rule:nonzero;stroke:none"
             d="M 0,0 2.212,8.129 C 3.766,6.774 5.474,5.733 7.338,5.005 9.2,4.279 11.077,3.915 12.971,3.915 c 1.334,0 2.35,0.214 3.048,0.643 0.697,0.428 1.046,1.05 1.046,1.868 0,1.334 -1.405,2.331 -4.214,2.988 -0.917,0.219 -1.654,0.408 -2.212,0.568 -3.188,0.876 -5.503,2.027 -6.948,3.451 -1.445,1.425 -2.167,3.273 -2.167,5.545 0,2.929 1.101,5.269 3.303,7.023 2.201,1.753 5.185,2.63 8.951,2.63 1.932,0 3.9,-0.224 5.902,-0.673 2.003,-0.447 4.05,-1.14 6.142,-2.076 L 23.61,18.559 c -1.415,0.957 -2.85,1.684 -4.303,2.182 -1.455,0.498 -2.91,0.747 -4.364,0.747 -1.216,0 -2.132,-0.19 -2.749,-0.568 -0.618,-0.378 -0.927,-0.926 -0.927,-1.643 0,-1.076 1.394,-1.983 4.184,-2.72 0.637,-0.179 1.116,-0.309 1.435,-0.389 3.685,-1.056 6.251,-2.296 7.695,-3.72 1.445,-1.425 2.167,-3.353 2.167,-5.783 0,-3.089 -1.186,-5.584 -3.556,-7.486 -2.372,-1.903 -5.51,-2.855 -9.414,-2.855 -2.651,0 -5.111,0.304 -7.382,0.911 C 4.124,-2.157 1.992,-1.236 0,0" /></g><g
           transform="translate(431.4279,262.046)"
           id="g32"><path
             id="path34"
             style="fill:#332d2b;fill-opacity:1;fill-rule:nonzero;stroke:none"
             d="m 0,0 v 22.654 h -4.513 v 7.531 H 0 v 8.996 h 10.49 v -8.996 h 4.513 V 22.654 H 10.49 V 0 Z" /></g><g
           transform="translate(455.2,262.046)"
           id="g36"><path
             id="path38"
             style="fill:#332d2b;fill-opacity:1;fill-rule:nonzero;stroke:none"
             d="M 0,0 V 43.754 H 11.925 V 10.221 H 26.748 V 0 Z" /></g><g
           transform="translate(495.7075,295.6979)"
           id="g40"><path
             id="path42"
             style="fill:#e7395f;fill-opacity:1;fill-rule:nonzero;stroke:none"
             d="m 0,0 c 1.635,0 3.023,0.577 4.169,1.733 1.145,1.155 1.72,2.56 1.72,4.214 0,1.654 -0.563,3.038 -1.69,4.155 -1.126,1.115 -2.525,1.673 -4.199,1.673 -1.612,0 -2.993,-0.568 -4.139,-1.703 C -5.285,8.936 -5.858,7.561 -5.858,5.947 -5.858,4.333 -5.28,2.939 -4.124,1.763 -2.969,0.587 -1.593,0 0,0" /></g><path
           id="path44"
           style="fill:#332d2b;fill-opacity:1;fill-rule:nonzero;stroke:none"
           d="m 490.388,262.046 h 10.668 v 30.185 h -10.668 z" /><g
           transform="translate(512.2452,262.046)"
           id="g46"><path
             id="path48"
             style="fill:#332d2b;fill-opacity:1;fill-rule:nonzero;stroke:none"
             d="m 0,0 v 30.185 h 9.746 v -6.127 c 1.413,2.451 3.046,4.244 4.901,5.38 1.851,1.136 4.074,1.704 6.664,1.704 1.953,0 3.69,-0.315 5.215,-0.941 1.524,-0.629 2.764,-1.53 3.72,-2.706 0.798,-1.016 1.365,-2.252 1.704,-3.706 0.34,-1.454 0.509,-3.626 0.509,-6.515 V 0 h -10.67 v 16.168 c 0,2.411 -0.393,4.164 -1.18,5.26 -0.789,1.096 -2.048,1.644 -3.781,1.644 -2.212,0 -3.825,-0.817 -4.842,-2.45 -1.016,-1.635 -1.523,-4.285 -1.523,-7.95 L 10.463,0 Z" /></g><g
           transform="translate(555.3267,262.046)"
           id="g50"><path
             id="path52"
             style="fill:#332d2b;fill-opacity:1;fill-rule:nonzero;stroke:none"
             d="M 0,0 V 46.324 H 10.458 V 17.005 l 10.969,13.18 h 13.21 L 21.069,15.66 35.864,0 H 21.846 L 10.458,13.419 V 0 Z" /></g><g
           transform="translate(618.3694,281.0238)"
           id="g54"><path
             id="path56"
             style="fill:#332d2b;fill-opacity:1;fill-rule:nonzero;stroke:none"
             d="m 0,0 c -0.199,1.713 -0.85,3.088 -1.957,4.124 -1.105,1.036 -2.466,1.554 -4.078,1.554 -1.735,0 -3.114,-0.473 -4.14,-1.42 C -11.203,3.313 -11.883,1.892 -12.223,0 Z m 10.491,-6.007 h -22.953 c 0.02,-2.331 0.617,-4.129 1.794,-5.395 1.176,-1.265 2.84,-1.897 4.991,-1.897 1.612,0 2.974,0.303 4.079,0.912 1.106,0.607 1.947,1.508 2.525,2.704 l 8.01,-3.228 c -0.956,-2.312 -2.649,-4.094 -5.081,-5.349 -2.431,-1.256 -5.41,-1.883 -8.935,-1.883 -5.26,0 -9.48,1.459 -12.658,4.378 -3.178,2.919 -4.766,6.769 -4.766,11.551 0,4.702 1.588,8.607 4.766,11.715 3.178,3.109 7.198,4.663 12.06,4.663 5,0 8.945,-1.575 11.835,-4.722 2.889,-3.149 4.333,-7.462 4.333,-12.941 z" /></g><g
           transform="translate(638.077,262.046)"
           id="g58"><path
             id="path60"
             style="fill:#332d2b;fill-opacity:1;fill-rule:nonzero;stroke:none"
             d="m 0,0 v 30.185 h 10.042 v -7.113 c 1.035,2.59 2.448,4.532 4.242,5.828 1.793,1.295 3.966,1.943 6.517,1.943 0.416,0 0.84,-0.016 1.269,-0.045 0.428,-0.031 0.861,-0.075 1.299,-0.135 L 22.355,20.98 c -0.638,0.219 -1.267,0.378 -1.884,0.478 -0.617,0.1 -1.215,0.15 -1.793,0.15 -2.59,0 -4.587,-0.792 -5.993,-2.377 -1.403,-1.583 -2.107,-3.83 -2.107,-6.739 V 0 Z" /></g><g
           transform="translate(280.7914,307.1719)"
           id="g62"><path
             id="path64"
             style="fill:#e7395f;fill-opacity:1;fill-rule:nonzero;stroke:none"
             d="M 0,0 V 0 C -13.065,0 -23.657,-10.592 -23.657,-23.657 V -47.313 H 0 c 13.065,0 23.657,10.591 23.657,23.656 C 23.657,-10.592 13.065,0 0,0" /></g><g
           transform="translate(197.4515,355.5536)"
           id="g66"><path
             id="path68"
             style="fill:#2970b7;fill-opacity:1;fill-rule:nonzero;stroke:none"
             d="m 0,0 v -111.472 l 47.051,16.527 V 12.648 Z" /></g></g></g></g></svg>