<?xml version="1.0" encoding="UTF-8"?>
<!DOCTYPE svg PUBLIC "-//W3C//DTD SVG 1.1//EN" "http://www.w3.org/Graphics/SVG/1.1/DTD/svg11.dtd">
<svg xmlns="http://www.w3.org/2000/svg" version="1.1" width="258px" height="268px" style="shape-rendering:geometricPrecision; text-rendering:geometricPrecision; image-rendering:optimizeQuality; fill-rule:evenodd; clip-rule:evenodd" xmlns:xlink="http://www.w3.org/1999/xlink">
<g><path style="opacity:1" fill="#fefefe" d="M -0.5,-0.5 C 85.5,-0.5 171.5,-0.5 257.5,-0.5C 257.5,88.8333 257.5,178.167 257.5,267.5C 171.5,267.5 85.5,267.5 -0.5,267.5C -0.5,178.167 -0.5,88.8333 -0.5,-0.5 Z"/></g>
<g><path style="opacity:1" fill="#406ab1" d="M 115.5,10.5 C 116.5,10.5 117.5,10.5 118.5,10.5C 118.833,81.1698 118.5,151.836 117.5,222.5C 87.0235,233.77 56.3568,244.436 25.5,254.5C 25.3333,181.499 25.5,108.499 26,35.5C 55.884,27.0728 85.7173,18.7394 115.5,10.5 Z"/></g>
<g><path style="opacity:1" fill="#c63159" d="M 182.5,130.5 C 209.381,129.236 227.215,141.236 236,166.5C 239.471,195.074 227.638,213.908 200.5,223C 181.547,224.435 162.547,224.935 143.5,224.5C 143.333,206.164 143.5,187.83 144,169.5C 149.015,148.653 161.848,135.653 182.5,130.5 Z"/></g>
</svg>
