<svg xmlns="http://www.w3.org/2000/svg" xmlns:xlink="http://www.w3.org/1999/xlink" viewBox="0 0 685 226"><defs><clipPath id="a"><rect width="685" height="226" style="fill:none"/></clipPath><clipPath id="b"><rect x="56.6169" y="84.6535" width="571.66" height="56.693" style="fill:none"/></clipPath><clipPath id="c"><rect x="56.6169" y="84.6535" width="571.659" height="56.693" style="fill:none"/></clipPath></defs><g style="clip-path:url(#a)"><g style="clip-path:url(#b)"><g style="clip-path:url(#c)"><path d="M195.2942,136.8883h3.767a.6673.6673,0,0,0,.521-.297l15.565-25.481,8.4639,29.153a.4755.4755,0,0,0,.44.334H240.39a.2337.2337,0,0,0,.244-.319l-17.23-54.554a.51.51,0,0,0-.4541-.332h-6.134a.6863.6863,0,0,0-.534.297l-20.9879,32.53-20.983-32.53a.6979.6979,0,0,0-.537-.297H167.64a.51.51,0,0,0-.453.332l-17.228,54.554a.2322.2322,0,0,0,.244.319h16.334a.4719.4719,0,0,0,.442-.334l8.465-29.153,15.5659,25.481a.66.66,0,0,0,.522.297Z" style="fill:#005bac"/><path d="M150.7014,109.72v-.013a.3554.3554,0,0,0-.343-.274h-46.539a4.46,4.46,0,0,0,0,8.919h27.6559c-3.294,8.703-14.4369,15.098-27.6559,15.098-15.826,0-28.649-9.155-28.649-20.451s12.823-20.461,28.649-20.461c8.644,0,16.384,2.734,21.6379,7.063a.1924.1924,0,0,1,.0541.048.3287.3287,0,0,0,.192.046h19.0179a.3482.3482,0,0,0,.349-.344.313.313,0,0,0-.082-.214c-.011-.023-.025-.023-.028-.036-8.1-8.633-23.485-14.445-41.1409-14.445-26.069,0-47.202,12.688-47.202,28.343,0,15.66,21.133,28.347,47.202,28.347,26.062,0,47.192-12.687,47.192-28.347a17.652,17.652,0,0,0-.31-3.279" style="fill:#005bac"/><path d="M286.7722,84.6547c-26.0641,0-47.192,12.689-47.192,28.346,0,15.66,21.1279,28.345,47.192,28.345,26.0669,0,47.2029-12.685,47.2029-28.345,0-15.657-21.136-28.346-47.2029-28.346m0,48.797c-15.815,0-28.6431-9.156-28.6431-20.451s12.8281-20.464,28.6431-20.464c15.8269,0,28.6569,9.168,28.6569,20.464s-12.83,20.451-28.6569,20.451" style="fill:#005bac"/><path d="M532.9514,139.7183a.8073.8073,0,0,0,.8139.878h9.8581a.968.968,0,0,0,.9469-.878l1.694-22.571a.81.81,0,0,0-.817-.879h-9.855a.97.97,0,0,0-.95.879Z" style="fill:#393c41"/><path d="M589.9953,116.2681a.8052.8052,0,0,0-.814.878l1.71,22.573a.9676.9676,0,0,0,.948.878h9.856c.486,0,1.407-.395,1.371-.878l-2.267-22.573a.9688.9688,0,0,0-.95-.878Z" style="fill:#393c41"/><path d="M600.4729,105.0885a.8843.8843,0,0,0,.8809-.881v-9.486a.8849.8849,0,0,0-.8809-.881H574.1178a.8809.8809,0,0,1-.881-.88v-6.688a.8849.8849,0,0,0-.8809-.881h-9.488a.8834.8834,0,0,0-.88.881v6.688a.8828.8828,0,0,1-.8811.88H534.9389a.8838.8838,0,0,0-.882.881v9.486a.8832.8832,0,0,0,.882.881h26.1679a.883.883,0,0,1,.8811.881v33.747a.8834.8834,0,0,0,.88.881h9.488a.8849.8849,0,0,0,.8809-.881V105.97a.8811.8811,0,0,1,.881-.881Z" style="fill:#393c41"/><path d="M348.5861,123.9732a.5963.5963,0,0,0,0,.839l7.113,7.114a.5976.5976,0,0,0,.84,0l25.788-25.787a.5939.5939,0,0,1,.84,0l33.679,33.74a.5945.5945,0,0,0,.839,0l7.114-7.114a.5982.5982,0,0,0,0-.839l-41.624-41.701a.5945.5945,0,0,0-.839-.002Z" style="fill:#393c41"/><path d="M443.6,140.0074a.5128.5128,0,0,0,.5209.589h10.927a.6863.6863,0,0,0,.6641-.589l5.91-49.133a.5136.5136,0,0,0-.5219-.589H450.1718a.6878.6878,0,0,0-.664.589Z" style="fill:#393c41"/><path d="M487.8654,90.2852a.5145.5145,0,0,0-.522.589l5.962,49.134a.69.69,0,0,0,.665.59h10.927a.5172.5172,0,0,0,.524-.59l-5.964-49.134a.69.69,0,0,0-.665-.589Z" style="fill:#393c41"/><rect x="606.8556" y="84.6541" width="8.444" height="14.746" rx="0.881" style="fill:#1f7acc"/><rect x="619.8313" y="84.6541" width="8.4449" height="14.746" rx="0.881" style="fill:#1f7acc"/><path d="M417.65,101.273a8.31,8.31,0,1,0-8.311-8.309,8.3089,8.3089,0,0,0,8.311,8.309" style="fill:#1f7acc"/><path d="M515.4894,84.6544a8.31,8.31,0,1,0,8.309,8.309,8.31,8.31,0,0,0-8.309-8.309" style="fill:#1f7acc"/></g></g></g></svg>